<svg width="40" height="41" viewBox="0 0 40 41" fill="none" xmlns="http://www.w3.org/2000/svg">
<circle cx="20" cy="20.75" r="20" fill="#3270EA"/>
<path fill-rule="evenodd" clip-rule="evenodd" d="M10.5 12.8438C9.39543 12.8438 8.5 13.7392 8.5 14.8437V15.1875H31.5V14.8438C31.5 13.7392 30.6046 12.8438 29.5 12.8438H10.5ZM31.5 18.1875H8.5V26.6562C8.5 27.7608 9.39543 28.6562 10.5 28.6562H29.5C30.6046 28.6562 31.5 27.7608 31.5 26.6562V18.1875ZM18.5466 23.8125C18.5466 25.1932 17.4273 26.3125 16.0466 26.3125C14.6658 26.3125 13.5466 25.1932 13.5466 23.8125C13.5466 22.4318 14.6658 21.3125 16.0466 21.3125C17.4273 21.3125 18.5466 22.4318 18.5466 23.8125ZM12.53 23.8125C12.53 22.9125 12.8946 22.0943 13.4762 21.5125C13.1897 21.3852 12.8685 21.3125 12.53 21.3125C11.2105 21.3125 10.1428 22.4307 10.1428 23.8125C10.1428 25.1943 11.2105 26.3125 12.53 26.3125C12.8685 26.3125 13.181 26.2398 13.4762 26.1125C12.8946 25.5307 12.53 24.7216 12.53 23.8125Z" fill="white"/>
</svg>
